<svg xmlns="http://www.w3.org/2000/svg" viewBox="0 0 600 375">
  <!-- Background -->
  <rect width="600" height="375" fill="#1e1e2e"/>
  <!-- Title bar -->
  <rect width="600" height="34" fill="#313244"/>
  <circle cx="18" cy="17" r="5.5" fill="#f38ba8"/>
  <circle cx="34" cy="17" r="5.5" fill="#f9e2af"/>
  <circle cx="50" cy="17" r="5.5" fill="#a6e3a1"/>
  <text x="300" y="22" text-anchor="middle" fill="#6c7086" font-family="sans-serif" font-size="12">main.ts — editor</text>

  <!-- Sidebar -->
  <rect x="0" y="34" width="44" height="341" fill="#313244" opacity="0.85"/>
  <rect x="12" y="52" width="20" height="3" rx="1.5" fill="#6c7086" opacity="0.5"/>
  <rect x="12" y="57" width="13" height="2.5" rx="1.25" fill="#6c7086" opacity="0.3"/>
  <rect x="12" y="80" width="20" height="3" rx="1.5" fill="#6c7086" opacity="0.5"/>
  <rect x="12" y="85" width="13" height="2.5" rx="1.25" fill="#6c7086" opacity="0.3"/>
  <rect x="12" y="108" width="20" height="3" rx="1.5" fill="#6c7086" opacity="0.5"/>
  <rect x="12" y="113" width="13" height="2.5" rx="1.25" fill="#6c7086" opacity="0.3"/>
  <rect x="12" y="136" width="20" height="3" rx="1.5" fill="#6c7086" opacity="0.5"/>
  <rect x="12" y="141" width="13" height="2.5" rx="1.25" fill="#6c7086" opacity="0.3"/>
  <rect x="12" y="164" width="20" height="3" rx="1.5" fill="#6c7086" opacity="0.5"/>
  <rect x="12" y="169" width="13" height="2.5" rx="1.25" fill="#6c7086" opacity="0.3"/>

  <!-- Line numbers area -->
  <rect x="44" y="34" width="38" height="341" fill="#1e1e2e" opacity="0.25"/>

  <!-- Active line highlight (line 3) -->
  <rect x="44" y="78" width="556" height="22" fill="#45475a" opacity="0.45"/>

  <!-- Line numbers -->
  <text x="76" y="62" text-anchor="end" fill="#6c7086" font-family="monospace" font-size="10.5" opacity="0.7">1</text>
  <text x="76" y="84" text-anchor="end" fill="#6c7086" font-family="monospace" font-size="10.5" opacity="0.7">2</text>
  <text x="76" y="106" text-anchor="end" fill="#6c7086" font-family="monospace" font-size="10.5" opacity="0.7">3</text>
  <text x="76" y="128" text-anchor="end" fill="#6c7086" font-family="monospace" font-size="10.5" opacity="0.7">4</text>
  <text x="76" y="150" text-anchor="end" fill="#6c7086" font-family="monospace" font-size="10.5" opacity="0.7">5</text>
  <text x="76" y="172" text-anchor="end" fill="#6c7086" font-family="monospace" font-size="10.5" opacity="0.7">6</text>
  <text x="76" y="194" text-anchor="end" fill="#6c7086" font-family="monospace" font-size="10.5" opacity="0.7">7</text>
  <text x="76" y="216" text-anchor="end" fill="#6c7086" font-family="monospace" font-size="10.5" opacity="0.7">8</text>
  <text x="76" y="238" text-anchor="end" fill="#6c7086" font-family="monospace" font-size="10.5" opacity="0.7">9</text>
  <text x="76" y="260" text-anchor="end" fill="#6c7086" font-family="monospace" font-size="10.5" opacity="0.7">10</text>
  <text x="76" y="282" text-anchor="end" fill="#6c7086" font-family="monospace" font-size="10.5" opacity="0.7">11</text>
  <text x="76" y="304" text-anchor="end" fill="#6c7086" font-family="monospace" font-size="10.5" opacity="0.7">12</text>
  <text x="76" y="326" text-anchor="end" fill="#6c7086" font-family="monospace" font-size="10.5" opacity="0.7">13</text>
  <text x="76" y="348" text-anchor="end" fill="#6c7086" font-family="monospace" font-size="10.5" opacity="0.7">14</text>

  <!-- Line 1: export function greet(name: string): void { -->
  <rect x="88" y="53" width="44" height="10" rx="2" fill="#cba6f7" opacity="0.88"/>
  <rect x="137" y="53" width="8" height="10" rx="2" fill="#cdd6f4" opacity="0.88"/>
  <rect x="150" y="53" width="54" height="10" rx="2" fill="#89b4fa" opacity="0.88"/>
  <rect x="209" y="53" width="8" height="10" rx="2" fill="#cdd6f4" opacity="0.88"/>
  <rect x="222" y="53" width="36" height="10" rx="2" fill="#cdd6f4" opacity="0.88"/>
  <rect x="263" y="53" width="6" height="10" rx="2" fill="#cdd6f4" opacity="0.88"/>
  <rect x="274" y="53" width="40" height="10" rx="2" fill="#89dceb" opacity="0.88"/>
  <rect x="319" y="53" width="8" height="10" rx="2" fill="#cdd6f4" opacity="0.88"/>
  <rect x="332" y="53" width="6" height="10" rx="2" fill="#cdd6f4" opacity="0.88"/>

  <!-- Line 2: // Build a greeting message -->
  <rect x="88" y="75" width="10" height="10" rx="2" fill="#6c7086" opacity="0.88"/>
  <rect x="103" y="75" width="48" height="10" rx="2" fill="#6c7086" opacity="0.88"/>
  <rect x="156" y="75" width="6" height="10" rx="2" fill="#6c7086" opacity="0.88"/>
  <rect x="167" y="75" width="55" height="10" rx="2" fill="#6c7086" opacity="0.88"/>

  <!-- Line 3 (active): const message = `Hello, ${name}!`; -->
  <rect x="104" y="97" width="36" height="10" rx="2" fill="#cba6f7" opacity="0.88"/>
  <rect x="145" y="97" width="8" height="10" rx="2" fill="#cdd6f4" opacity="0.88"/>
  <rect x="158" y="97" width="40" height="10" rx="2" fill="#cdd6f4" opacity="0.88"/>
  <rect x="203" y="97" width="6" height="10" rx="2" fill="#cdd6f4" opacity="0.88"/>
  <rect x="214" y="97" width="70" height="10" rx="2" fill="#a6e3a1" opacity="0.88"/>
  <rect x="289" y="97" width="6" height="10" rx="2" fill="#cdd6f4" opacity="0.88"/>
  <rect x="300" y="97" width="40" height="10" rx="2" fill="#cdd6f4" opacity="0.88"/>
  <rect x="345" y="97" width="6" height="10" rx="2" fill="#cdd6f4" opacity="0.88"/>
  <!-- Cursor -->
  <rect x="88" y="97" width="2" height="13" fill="#cdd6f4" opacity="0.75"/>

  <!-- Line 4: return message.toUpperCase(); -->
  <rect x="104" y="119" width="50" height="10" rx="2" fill="#cba6f7" opacity="0.88"/>
  <rect x="159" y="119" width="6" height="10" rx="2" fill="#cdd6f4" opacity="0.88"/>
  <rect x="170" y="119" width="36" height="10" rx="2" fill="#cdd6f4" opacity="0.88"/>

  <!-- Line 5: } -->
  <rect x="88" y="141" width="6" height="10" rx="2" fill="#cdd6f4" opacity="0.88"/>

  <!-- Line 7: const result = greet("World"); -->
  <rect x="88" y="185" width="36" height="10" rx="2" fill="#cba6f7" opacity="0.88"/>
  <rect x="129" y="185" width="8" height="10" rx="2" fill="#cdd6f4" opacity="0.88"/>
  <rect x="142" y="185" width="40" height="10" rx="2" fill="#cdd6f4" opacity="0.88"/>
  <rect x="187" y="185" width="6" height="10" rx="2" fill="#cdd6f4" opacity="0.88"/>
  <rect x="198" y="185" width="6" height="10" rx="2" fill="#cdd6f4" opacity="0.88"/>
  <rect x="209" y="185" width="60" height="10" rx="2" fill="#89b4fa" opacity="0.88"/>
  <rect x="274" y="185" width="8" height="10" rx="2" fill="#cdd6f4" opacity="0.88"/>
  <rect x="287" y="185" width="54" height="10" rx="2" fill="#a6e3a1" opacity="0.88"/>
  <rect x="346" y="185" width="8" height="10" rx="2" fill="#cdd6f4" opacity="0.88"/>
  <rect x="359" y="185" width="6" height="10" rx="2" fill="#cdd6f4" opacity="0.88"/>

  <!-- Line 8: console.log(result, 42, true); -->
  <rect x="88" y="207" width="36" height="10" rx="2" fill="#cdd6f4" opacity="0.88"/>
  <rect x="129" y="207" width="6" height="10" rx="2" fill="#cdd6f4" opacity="0.88"/>
  <rect x="140" y="207" width="54" height="10" rx="2" fill="#89b4fa" opacity="0.88"/>
  <rect x="199" y="207" width="8" height="10" rx="2" fill="#cdd6f4" opacity="0.88"/>
  <rect x="212" y="207" width="36" height="10" rx="2" fill="#cdd6f4" opacity="0.88"/>
  <rect x="253" y="207" width="6" height="10" rx="2" fill="#cdd6f4" opacity="0.88"/>
  <rect x="264" y="207" width="18" height="10" rx="2" fill="#fab387" opacity="0.88"/>
  <rect x="287" y="207" width="6" height="10" rx="2" fill="#cdd6f4" opacity="0.88"/>
  <rect x="298" y="207" width="30" height="10" rx="2" fill="#cba6f7" opacity="0.88"/>
  <rect x="333" y="207" width="6" height="10" rx="2" fill="#cdd6f4" opacity="0.88"/>

  <!-- Line 9: type Greeting = { -->
  <rect x="88" y="229" width="50" height="10" rx="2" fill="#cba6f7" opacity="0.88"/>
  <rect x="143" y="229" width="6" height="10" rx="2" fill="#cdd6f4" opacity="0.88"/>
  <rect x="154" y="229" width="60" height="10" rx="2" fill="#89dceb" opacity="0.88"/>
  <rect x="219" y="229" width="6" height="10" rx="2" fill="#cdd6f4" opacity="0.88"/>
  <rect x="230" y="229" width="6" height="10" rx="2" fill="#cdd6f4" opacity="0.88"/>

  <!-- Line 10:   name: string; message: string; -->
  <rect x="104" y="251" width="32" height="10" rx="2" fill="#89b4fa" opacity="0.88"/>
  <rect x="141" y="251" width="6" height="10" rx="2" fill="#cdd6f4" opacity="0.88"/>
  <rect x="152" y="251" width="40" height="10" rx="2" fill="#89dceb" opacity="0.88"/>
  <rect x="197" y="251" width="6" height="10" rx="2" fill="#cdd6f4" opacity="0.88"/>
  <rect x="212" y="251" width="50" height="10" rx="2" fill="#89b4fa" opacity="0.88"/>
  <rect x="267" y="251" width="6" height="10" rx="2" fill="#cdd6f4" opacity="0.88"/>
  <rect x="278" y="251" width="40" height="10" rx="2" fill="#89dceb" opacity="0.88"/>
  <rect x="323" y="251" width="6" height="10" rx="2" fill="#cdd6f4" opacity="0.88"/>

  <!-- Line 11: } -->
  <rect x="88" y="273" width="6" height="10" rx="2" fill="#cdd6f4" opacity="0.88"/>

  <!-- Status bar -->
  <rect x="0" y="355" width="600" height="20" fill="#313244"/>
  <rect x="8" y="360" width="50" height="8" rx="2" fill="#89b4fa" opacity="0.6"/>
  <rect x="66" y="360" width="40" height="8" rx="2" fill="#6c7086" opacity="0.5"/>
  <rect x="470" y="360" width="60" height="8" rx="2" fill="#6c7086" opacity="0.5"/>
  <rect x="538" y="360" width="50" height="8" rx="2" fill="#6c7086" opacity="0.5"/>
</svg>
